<?xml version="1.0" encoding="UTF-8"?>
<svg width="37px" height="37px" viewBox="0 0 37 37" version="1.1" xmlns="http://www.w3.org/2000/svg" xmlns:xlink="http://www.w3.org/1999/xlink">
    <title>akar-icons:cloud-download</title>
    <g id="Page-1" stroke="none" stroke-width="1" fill="none" fill-rule="evenodd">
        <g id="landing_page" transform="translate(-745.000000, -1159.000000)">
            <g id="akar-icons:cloud-download" transform="translate(745.000000, 1159.000000)">
                <rect id="ViewBox" x="0" y="0" width="37" height="37"></rect>
                <g id="Group" transform="translate(3.096145, 4.600165)" stroke="#000000" stroke-linecap="round" stroke-linejoin="round" stroke-width="3.06">
                    <path d="M15.4038553,29.3165021 L15.4038553,15.4415021 M15.4038553,29.3165021 L11.5496886,26.2331687 M15.4038553,29.3165021 L19.258022,26.2331687" id="Shape"></path>
                    <path d="M4.66460532,9.45521041 C1.64763897,10.2143802 -0.332154781,13.1009634 0.046245429,16.1888814 C0.424645639,19.2767995 3.04284954,21.599934 6.15385532,21.6081687 L7.69552198,21.6081687" id="Path"></path>
                    <path d="M21.3084386,6.40425208 C20.2149636,2.07429128 15.9504254,-0.665302277 11.5577914,0.14031233 C7.16515738,0.945926937 4.15035697,5.02056037 4.66460532,9.45675208 C4.66460532,9.45675208 4.90048032,10.8165021 5.38302198,11.5873354" id="Path"></path>
                    <path d="M23.1121886,21.6081687 C26.0828224,21.606146 28.7879404,19.8972787 30.0657303,17.2155028 C31.3435201,14.533727 30.9665637,11.3563389 29.0967589,9.04798489 C27.226954,6.73963085 24.1970842,5.71114642 21.3084386,6.40425208 L19.258022,6.96233541" id="Path"></path>
                </g>
            </g>
        </g>
    </g>
</svg>