<?xml version="1.0" encoding="UTF-8"?>
<svg width="31px" height="31px" viewBox="0 0 31 31" version="1.1" xmlns="http://www.w3.org/2000/svg" xmlns:xlink="http://www.w3.org/1999/xlink">
    <title>akar-icons:facebook-fill</title>
    <g id="Page-1" stroke="none" stroke-width="1" fill="none" fill-rule="evenodd">
        <g id="landing_page" transform="translate(-931.000000, -4231.000000)">
            <g id="akar-icons:facebook-fill" transform="translate(931.000000, 4231.000000)">
                <rect id="ViewBox" x="0" y="0" width="31" height="31"></rect>
                <g id="Group" fill="#FFFFFF">
                    <path d="M0,15.5865417 C0,23.292625 5.59679167,29.7005833 12.9166667,31 L12.9166667,19.805125 L9.04166667,19.805125 L9.04166667,15.5 L12.9166667,15.5 L12.9166667,12.055125 C12.9166667,8.180125 15.4134583,6.02820833 18.944875,6.02820833 C20.0634583,6.02820833 21.269875,6.2 22.3884583,6.37179167 L22.3884583,10.3333333 L20.4083333,10.3333333 C18.5134583,10.3333333 18.0833333,11.280125 18.0833333,12.4865417 L18.0833333,15.5 L22.2166667,15.5 L21.5282083,19.805125 L18.0833333,19.805125 L18.0833333,31 C25.4032083,29.7005833 31,23.2939167 31,15.5865417 C31,7.01375 24.025,0 15.5,0 C6.975,0 0,7.01375 0,15.5865417 Z" id="Path"></path>
                </g>
            </g>
        </g>
    </g>
</svg>