<?xml version="1.0" encoding="UTF-8"?>
<svg width="34px" height="31px" viewBox="0 0 34 31" version="1.1" xmlns="http://www.w3.org/2000/svg" xmlns:xlink="http://www.w3.org/1999/xlink">
    <title>ci:heart-outline</title>
    <g id="Page-1" stroke="none" stroke-width="1" fill="none" fill-rule="evenodd">
        <g id="landing_page" transform="translate(-941.000000, -1162.000000)" fill="#000000" fill-rule="nonzero">
            <g id="ci:heart-outline" transform="translate(941.000000, 1162.000000)">
                <g id="Group" transform="translate(-0.000000, 0.000000)">
                    <path d="M17,30.9862292 C15.9035025,30.0016172 14.6642053,28.9774141 13.3535084,27.8877998 L13.3365084,27.8877998 C8.72101896,24.0664036 3.49013094,19.7423732 1.17983623,14.5611107 C0.421637964,12.9120577 0.0187388868,11.1184114 1.93901108e-05,9.29722345 C-0.00504964762,6.80038037 0.9839469,4.40684464 2.74350623,2.65757742 C4.50306557,0.908310196 6.8846565,-0.0490261307 9.35001752,0.00193527554 C11.3570811,0.00514525213 13.3209284,0.592498104 15.0076046,1.69402199 C15.74875,2.18111097 16.4193179,2.77030353 17,3.4446346 C17.5847987,2.77330823 18.2545971,2.18460665 18.9940954,1.69402199 C20.6800432,0.592280334 22.643414,0.00489350164 24.6499825,0.00193527554 C27.1153435,-0.0490261307 29.4969344,0.908310196 31.2564938,2.65757742 C33.0160531,4.40684464 34.0050496,6.80038037 33.9999806,9.29722345 C33.9826342,11.1198155 33.5803635,12.9175562 32.8201638,14.5697175 C30.5098691,19.75098 25.280681,24.073289 20.6651916,27.8877998 L20.6481916,27.9015706 C19.3357947,28.9842995 18.0981975,30.0085026 17.0017,31 L17,30.9862292 Z M9.35001752,3.4446346 C7.76648936,3.42456892 6.23914722,4.03823083 5.10002725,5.15221347 C4.00248488,6.24383335 3.38907383,7.73948086 3.39988683,9.29722345 C3.4187311,10.6226627 3.71623042,11.9308884 4.27042915,13.1323905 C5.3610238,15.3678984 6.83253527,17.3910751 8.6173192,19.1089165 C10.3020153,20.8302662 12.2400109,22.4965327 13.9162071,23.8977113 C14.380306,24.285015 14.8529049,24.6757613 15.3255038,25.0665077 L15.6230032,25.3126607 C16.0769021,25.6879149 16.546101,26.07694 17,26.4590796 L17.0220999,26.4384234 L17.0322999,26.4298166 L17.0424999,26.4298166 L17.0577999,26.4177672 L17.0747998,26.4177672 L17.1053998,26.391947 L17.1750996,26.3351424 L17.1869996,26.3248143 L17.2056995,26.3110435 L17.2158995,26.3110435 L17.2311995,26.2972727 L18.3599969,25.3591372 L18.6557962,25.1129842 C19.1334951,24.7187951 19.606094,24.3280487 20.070193,23.940745 C21.7463891,22.5395664 23.6860847,20.8750213 25.3707808,19.1450649 C27.1558855,17.4281686 28.6274555,15.4054942 29.7176709,13.1702602 C30.2820696,11.95843 30.5846689,10.6364335 30.601722,9.29722345 C30.6083009,7.74403703 29.9945791,6.25409317 28.8999727,5.16598426 C27.7630433,4.04696902 26.2354374,3.42825143 24.6499825,3.4446346 C22.7152562,3.42798616 20.8656828,4.24913946 19.5669941,5.70132401 L17,8.69647242 L14.4330059,5.70132401 C13.1343172,4.24913946 11.2847438,3.42798616 9.35001752,3.4446346 Z" id="Shape"></path>
                </g>
            </g>
        </g>
    </g>
</svg>