<?xml version="1.0" encoding="UTF-8"?>
<svg width="35px" height="35px" viewBox="0 0 35 35" version="1.1" xmlns="http://www.w3.org/2000/svg" xmlns:xlink="http://www.w3.org/1999/xlink">
    <title>ant-design:twitter-circle-filled</title>
    <g id="Page-1" stroke="none" stroke-width="1" fill="none" fill-rule="evenodd">
        <g id="landing_page" transform="translate(-973.000000, -4229.000000)">
            <g id="ant-design:twitter-circle-filled" transform="translate(973.000000, 4229.000000)">
                <rect id="ViewBox" x="0" y="0" width="35" height="35"></rect>
                <path d="M17.5,2 C8.94040179,2 2,8.94040179 2,17.5 C2,26.0595982 8.94040179,33 17.5,33 C26.0595982,33 33,26.0595982 33,17.5 C33,8.94040179 26.0595982,2 17.5,2 Z M24.9489955,13.683817 C24.959375,13.8464286 24.959375,14.0159598 24.959375,14.1820312 C24.959375,19.2610491 21.0912946,25.1116071 14.0228795,25.1116071 C11.843192,25.1116071 9.82265625,24.4784598 8.12042411,23.3886161 C8.43180804,23.4232143 8.72935268,23.4370536 9.04765625,23.4370536 C10.8467634,23.4370536 12.500558,22.828125 13.81875,21.7970982 C12.1303571,21.7625 10.7118304,20.6553571 10.2274554,19.1330357 C10.8190848,19.2195312 11.3518973,19.2195312 11.9608259,19.0638393 C10.1682987,18.6996614 8.8813823,17.1217774 8.88504464,15.2926339 L8.88504464,15.2441964 C9.39363839,15.5313616 9.9921875,15.7078125 10.6184152,15.7320312 C9.54925737,15.0194908 8.90667053,13.8199954 8.90580357,12.5351562 C8.90580357,11.8189732 9.09263393,11.165067 9.42823661,10.5976562 C11.37975,13.0000218 14.2599547,14.4602478 17.3512277,14.6145089 C16.8080357,12.0023437 18.759375,9.88839286 21.1051339,9.88839286 C22.2122768,9.88839286 23.2087054,10.3520089 23.9110491,11.0993304 C24.7794643,10.9367187 25.6098214,10.6114955 26.3502232,10.175558 C26.063058,11.0647321 25.4610491,11.8155134 24.6618304,12.2895089 C25.4368304,12.2064732 26.1841518,11.9919643 26.8761161,11.6909598 C26.353683,12.4590402 25.6997768,13.140625 24.9489955,13.683817 L24.9489955,13.683817 Z" id="Shape" fill="#FFFFFF" fill-rule="nonzero"></path>
            </g>
        </g>
    </g>
</svg>