<?xml version="1.0" encoding="UTF-8"?>
<svg width="19px" height="19px" viewBox="0 0 19 19" version="1.1" xmlns="http://www.w3.org/2000/svg" xmlns:xlink="http://www.w3.org/1999/xlink">
    <title>Shape</title>
    <g id="Page-1" stroke="none" stroke-width="1" fill="none" fill-rule="evenodd">
        <g id="landing_page" transform="translate(-544.000000, -4235.000000)" fill="#FFFFFF" fill-rule="nonzero">
            <g id="Group-8" transform="translate(-1.000000, 4120.000000)">
                <g id="bx:bx-phone" transform="translate(542.000000, 112.000000)">
                    <path d="M17.7122165,13.2932012 C17.5248191,13.1054848 17.2704621,13 17.0052165,13 C16.7399709,13 16.485614,13.1054848 16.2982165,13.2932012 L14.7042165,14.8872012 C13.9652165,14.6672012 12.5862165,14.1672012 11.7122165,13.2932012 C10.8382165,12.4192012 10.3382165,11.0402012 10.1182165,10.3012012 L11.7122165,8.70720116 C11.8999329,8.51980373 12.0054177,8.26544677 12.0054177,8.00020116 C12.0054177,7.73495556 11.8999329,7.4805986 11.7122165,7.29320116 L7.71221654,3.29320116 C7.52481911,3.1054848 7.27046215,3 7.00521654,3 C6.73997094,3 6.48561398,3.1054848 6.29821654,3.29320116 L3.58621654,6.00520116 C3.20621654,6.38520116 2.99221654,6.90720116 3.00021654,7.44020116 C3.02321654,8.86420116 3.40021654,13.8102012 7.29821654,17.7082012 C11.1962165,21.6062012 16.1422165,21.9822012 17.5672165,22.0062012 L17.5952165,22.0062012 C18.1232165,22.0062012 18.6222165,21.7982012 19.0002165,21.4202012 L21.7122165,18.7082012 C21.8999329,18.5208037 22.0054177,18.2664468 22.0054177,18.0012012 C22.0054177,17.7359556 21.8999329,17.4815986 21.7122165,17.2942012 L17.7122165,13.2932012 L17.7122165,13.2932012 Z M17.5852165,20.0052012 C16.3372165,19.9842012 12.0672165,19.6492012 8.71221654,16.2932012 C5.34621654,12.9272012 5.02021654,8.64220116 5.00021654,7.41920116 L7.00521654,5.41420116 L9.59121654,8.00020116 L8.29821654,9.29320116 C8.05943116,9.53180653 7.9571415,9.87477777 8.02621654,10.2052012 C8.05021654,10.3202012 8.63721654,13.0472012 10.2972165,14.7072012 C11.9572165,16.3672012 14.6842165,16.9542012 14.7992165,16.9782012 C15.1295369,17.049244 15.4732915,16.9470976 15.7112165,16.7072012 L17.0052165,15.4142012 L19.5912165,18.0002012 L17.5852165,20.0052012 L17.5852165,20.0052012 Z" id="Shape"></path>
                </g>
            </g>
        </g>
    </g>
</svg>