<?xml version="1.0" encoding="UTF-8"?>
<svg width="31px" height="31px" viewBox="0 0 31 31" version="1.1" xmlns="http://www.w3.org/2000/svg" xmlns:xlink="http://www.w3.org/1999/xlink">
    <title>ant-design:instagram-filled</title>
    <g id="Page-1" stroke="none" stroke-width="1" fill="none" fill-rule="evenodd">
        <g id="landing_page" transform="translate(-1020.000000, -4231.000000)" fill="#FFFFFF" fill-rule="nonzero">
            <g id="ant-design:instagram-filled" transform="translate(1020.000000, 4231.000000)">
                <path d="M15.4958339,10.3311327 C12.6497139,10.3311327 10.3270628,12.653827 10.3270628,15.5 C10.3270628,18.346173 12.6497139,20.6688673 15.4958339,20.6688673 C18.3419539,20.6688673 20.6646049,18.346173 20.6646049,15.5 C20.6646049,12.653827 18.3419539,10.3311327 15.4958339,10.3311327 Z M30.9982695,15.5 C30.9982695,13.3595538 31.0176573,11.2384958 30.8974533,9.10192721 C30.7772493,6.62025049 30.2111273,4.4177624 28.396435,2.6030363 C26.5778652,0.784432581 24.3792956,0.2221777 21.8976651,0.101971484 C19.7572588,-0.0182347324 17.6362402,0.00115336701 15.4997114,0.00115336701 C13.3593051,0.00115336701 11.2382865,-0.0182347324 9.10175776,0.101971484 C6.62012724,0.2221777 4.41768016,0.788310201 2.60298784,2.6030363 C0.784417978,4.42164002 0.222173563,6.62025049 0.101969585,9.10192721 C-0.0182343929,11.2423734 0.00115334553,13.3634314 0.00115334553,15.5 C0.00115334553,17.6365686 -0.0182343929,19.7615042 0.101969585,21.8980728 C0.222173563,24.3797495 0.788295525,26.5822376 2.60298784,28.3969637 C4.4215577,30.2155674 6.62012724,30.7778223 9.10175776,30.8980285 C11.2421641,31.0182347 13.3631827,30.9988466 15.4997114,30.9988466 C17.6401178,30.9988466 19.7611363,31.0182347 21.8976651,30.8980285 C24.3792956,30.7778223 26.5817427,30.2116898 28.396435,28.3969637 C30.2150049,26.57836 30.7772493,24.3797495 30.8974533,21.8980728 C31.0215348,19.7615042 30.9982695,17.6404462 30.9982695,15.5 Z M15.4958339,23.4529984 C11.0948173,23.4529984 7.54298359,19.9010986 7.54298359,15.5 C7.54298359,11.0989014 11.0948173,7.54700164 15.4958339,7.54700164 C19.8968505,7.54700164 23.4486842,11.0989014 23.4486842,15.5 C23.4486842,19.9010986 19.8968505,23.4529984 15.4958339,23.4529984 Z M23.7743982,9.07866295 C22.7468481,9.07866295 21.9170529,8.24885084 21.9170529,7.22128157 C21.9170529,6.1937123 22.7468481,5.36390165 23.7743982,5.36390165 C24.8019483,5.36390165 25.631745,6.1937123 25.631745,7.22128157 C25.632362,7.71407869 25.4368765,8.18686995 25.0884226,8.5353304 C24.7399686,8.88379086 24.2671861,9.07927994 23.7743982,9.07866295 L23.7743982,9.07866295 Z" id="Shape"></path>
            </g>
        </g>
    </g>
</svg>